# xmcd
#
# Track frame offsets:
#	150
#	14221
#	27670
#	42986
#	56667
#	71788
#	87464
#	106605
#	119424
#	132108
#	148309
#	162253
#	177134
#
# Disc length: 2553 seconds
#
# Revision: 0
# Processed by: cddbd v1.5.2PL0 Copyright (c) Steve Scherf et al.
# Submitted via: audiograbber 1.83.01
#
DISCID=c009f70d
DTITLE=Toten Hosen - In aller Stille
DYEAR=2008
DGENRE=Deutschpunk
TTITLE0=Strom
TTITLE1=Innen alles neu
TTITLE2=Disco
TTITLE3=Teil von mir
TTITLE4=Auflösen
TTITLE5=Leben ist tödlich
TTITLE6=Ertrinken
TTITLE7=Alles was war
TTITLE8=Pessimist
TTITLE9=Wir bleiben stumm
TTITLE10=Die letzte Schlacht
TTITLE11=Tauschen gegen Dich
TTITLE12=Angst
EXTD=
EXTT0=
EXTT1=
EXTT2=
EXTT3=
EXTT4=
EXTT5=
EXTT6=
EXTT7=
EXTT8=
EXTT9=
EXTT10=
EXTT11=
EXTT12=
PLAYORDER=
